<?xml version="1.0" encoding="UTF-8"?> <svg xmlns="http://www.w3.org/2000/svg" xmlns:xlink="http://www.w3.org/1999/xlink" viewBox="0 0 180 180"><defs><style>.cls-1{isolation:isolate;}.cls-2{fill:#fff;}.cls-3,.cls-4{fill:none;stroke:#000;stroke-linecap:round;stroke-linejoin:round;stroke-width:7px;}.cls-3{fill-rule:evenodd;}.cls-5{opacity:0.4;mix-blend-mode:overlay;fill:url(#Degradado_sin_nombre_10);}</style><linearGradient id="Degradado_sin_nombre_10" x1="-3198.43" y1="1699.41" x2="-3198.43" y2="1788.75" gradientTransform="translate(-2658.38 2675.56) rotate(180)" gradientUnits="userSpaceOnUse"><stop offset="0" stop-color="#fff" stop-opacity="0"></stop><stop offset="0.23" stop-color="#fff" stop-opacity="0.27"></stop><stop offset="0.51" stop-color="#fff" stop-opacity="0.58"></stop><stop offset="0.74" stop-color="#fff" stop-opacity="0.81"></stop><stop offset="0.91" stop-color="#fff" stop-opacity="0.95"></stop><stop offset="1" stop-color="#fff"></stop></linearGradient></defs><title>off1</title><g class="cls-1"><g id="Слой_1" data-name="Слой 1"><circle class="cls-2" cx="90" cy="90" r="90"></circle><path class="cls-3" d="M541.31,991.89a4.32,4.32,0,0,1-2.39,3.91,2.84,2.84,0,0,1-2.36.8c-.79,0-1.55-.8-2.36-1.59l-26-21.29H493.93a5.09,5.09,0,0,1-4.72-4.75V950a5.1,5.1,0,0,1,4.72-4.73h14.24l26-22.09c.81-.79,3.16-.79,4.72,0a4.33,4.33,0,0,1,2.39,3.94Z" transform="translate(-450.05 -869.61)"></path><line class="cls-4" x1="111.75" y1="103.66" x2="140.84" y2="74.57"></line><line class="cls-4" x1="111.75" y1="74.57" x2="140.84" y2="103.66"></line><path class="cls-5" d="M462,959.61a78,78,0,0,1,156.05,0c0,43.09-34.93,3.65-78,3.65S462,1002.71,462,959.61Z" transform="translate(-450.05 -869.61)"></path></g></g></svg> 